<svg aria-hidden="true" style="position:absolute;width:0;height:0;overflow:hidden" xmlns="http://www.w3.org/2000/svg"><defs><symbol id="icon-Vector-1" viewBox="0 0 32 32"><path fill="#959595" style="fill:var(--color1, #959595)" d="M22.918 19.135c-.392-.196-2.315-1.141-2.673-1.273-.358-.13-.618-.195-.88.197-.261.39-1.009 1.271-1.237 1.532-.229.262-.457.294-.847.099-.391-.197-1.652-.609-3.145-1.941-1.162-1.037-1.948-2.317-2.175-2.71-.228-.391-.025-.603.171-.797.176-.175.391-.457.587-.684.196-.229.261-.392.391-.654.132-.261.066-.488-.033-.684-.097-.196-.879-2.121-1.205-2.904-.317-.762-.64-.658-.879-.671-.229-.011-.49-.013-.75-.013s-.684.097-1.042.49c-.359.391-1.369 1.337-1.369 3.262 0 1.924 1.4 3.783 1.596 4.045.196.261 2.757 4.211 6.68 5.905.934.403 1.662.643 2.229.822.937.299 1.79.257 2.464.155.75-.112 2.313-.946 2.64-1.86.325-.913.325-1.696.228-1.86s-.358-.261-.75-.457h.001zm-7.135 9.742h-.005c-2.33 0-4.617-.626-6.622-1.813l-.474-.282-4.924 1.292 1.315-4.801-.309-.492a12.97 12.97 0 0 1-1.988-6.922C2.779 8.687 8.614 2.852 15.79 2.852c3.474 0 6.74 1.355 9.196 3.814a12.93 12.93 0 0 1 3.805 9.202c-.003 7.172-5.838 13.008-13.007 13.008zM26.852 4.798A15.54 15.54 0 0 0 15.78.208C7.155.208.133 7.229.13 15.858a15.622 15.622 0 0 0 2.088 7.823l-2.22 8.11 8.296-2.177a15.64 15.64 0 0 0 7.48 1.905h.007c8.625 0 15.647-7.021 15.65-15.651a15.563 15.563 0 0 0-4.579-11.071z"/></symbol><symbol id="icon-Vector-2" viewBox="0 0 33 32"><path fill="#959595" style="fill:var(--color1, #959595)" d="M16.678.208C7.96.208.886 7.281.886 16s7.073 15.792 15.792 15.792c8.701 0 15.792-7.073 15.792-15.792S25.38.208 16.678.208zm10.431 7.279a13.429 13.429 0 0 1 3.049 8.393c-.445-.086-4.898-.994-9.385-.428-.104-.224-.19-.463-.292-.703a39.906 39.906 0 0 0-.89-1.953c4.967-2.021 7.227-4.932 7.518-5.31zM16.678 2.539c3.425 0 6.56 1.283 8.941 3.39-.24.342-2.278 3.066-7.073 4.864-2.211-4.058-4.659-7.383-5.036-7.896a13.686 13.686 0 0 1 3.169-.359v.001zm-5.737 1.266c.359.48 2.757 3.82 5.001 7.793-6.304 1.679-11.87 1.645-12.469 1.645.874-4.18 3.701-7.656 7.468-9.438zM3.182 16.017v-.41c.583.017 7.125.103 13.857-1.919a40.41 40.41 0 0 1 1.095 2.295c-.171.051-.359.103-.53.154-6.954 2.244-10.654 8.375-10.962 8.889a13.461 13.461 0 0 1-3.46-9.009zm13.496 13.479a13.4 13.4 0 0 1-8.272-2.842c.239-.497 2.979-5.773 10.584-8.428.034-.017.053-.017.086-.034 1.902 4.915 2.672 9.043 2.878 10.225a13.255 13.255 0 0 1-5.276 1.079zm7.52-2.312c-.137-.822-.857-4.761-2.622-9.609 4.231-.667 7.93.429 8.393.583-.583 3.75-2.741 6.988-5.772 9.026z"/></symbol><symbol id="icon-Vector-3" viewBox="0 0 33 32"><path fill="#959595" style="fill:var(--color1, #959595)" d="M31.19 0H1.75C1.042 0 .47.572.47 1.28v29.44c0 .708.572 1.28 1.28 1.28h29.44c.708 0 1.28-.572 1.28-1.28V1.28c0-.708-.572-1.28-1.28-1.28zM9.962 27.268H5.214V11.996h4.748v15.272zM7.59 9.908a2.75 2.75 0 0 1-2.543-1.699 2.756 2.756 0 0 1 .596-2.999 2.75 2.75 0 0 1 4.234.418c.302.453.464.985.464 1.529a2.757 2.757 0 0 1-2.752 2.752zm20.148 17.36h-4.744V19.84c0-1.772-.032-4.048-2.468-4.048-2.468 0-2.848 1.928-2.848 3.92v7.556h-4.74V11.996h4.552v2.088h.064c.632-1.2 2.18-2.468 4.492-2.468 4.808 0 5.692 3.164 5.692 7.276v8.376z"/></symbol><symbol id="icon-Vector-4" viewBox="0 0 41 32"><path fill="#959595" style="fill:var(--color1, #959595)" d="M39.321 3.954a15.96 15.96 0 0 1-4.577 1.254A7.99 7.99 0 0 0 38.248.797a15.902 15.902 0 0 1-5.061 1.933 7.978 7.978 0 0 0-9.583-1.579 7.97 7.97 0 0 0-4 8.851 22.631 22.631 0 0 1-16.429-8.33 7.97 7.97 0 0 0-1.078 4.007 7.963 7.963 0 0 0 3.545 6.635 7.937 7.937 0 0 1-3.61-.998v.103a7.974 7.974 0 0 0 6.394 7.816 8.02 8.02 0 0 1-3.6.137 7.975 7.975 0 0 0 7.447 5.534 15.996 15.996 0 0 1-9.9 3.414c-.636 0-1.271-.037-1.903-.111a22.54 22.54 0 0 0 12.217 3.581c14.664 0 22.68-12.145 22.68-22.678 0-.342-.008-.688-.024-1.03a16.218 16.218 0 0 0 3.975-4.124l.004-.005z"/></symbol><symbol id="icon-Vector-5" viewBox="0 0 53 32"><path fill="#959595" style="fill:var(--color1, #959595)" d="M33.72 2.117h12.865v3.086H33.72V2.117zM20.83 14.326c2.844-1.345 4.333-3.392 4.333-6.554C25.163 1.517 20.456 0 15.02 0H.06v31.394h15.38c5.765 0 11.175-2.741 11.175-9.117 0-3.94-1.883-6.854-5.784-7.951zM7.037 5.356h6.545c2.521 0 4.785.695 4.785 3.59 0 2.665-1.76 3.736-4.256 3.736H7.037V5.356zm7.448 20.708H7.031v-8.646h7.603c3.069 0 5.01 1.269 5.01 4.482 0 3.162-2.315 4.163-5.159 4.163zm37.13-5.706c0-6.726-3.979-12.331-11.175-12.331-6.997 0-11.756 5.209-11.756 12.037 0 7.077 4.508 11.935 11.756 11.935 5.488 0 9.041-2.442 10.75-7.651h-5.565c-.606 1.945-3.069 2.965-4.985 2.965-3.702 0-5.636-2.142-5.636-5.783H51.57c.019-.376.045-.772.045-1.173zm-16.611-2.767c.2-2.99 2.218-4.858 5.236-4.858 3.173 0 4.759 1.843 5.036 4.858H35.003z"/></symbol></defs></svg>